<?xml version="1.0" encoding="iso-8859-1"?>
<!-- Generator: Adobe Illustrator 19.0.0, SVG Export Plug-In . SVG Version: 6.00 Build 0)  -->
<svg xmlns="http://www.w3.org/2000/svg" xmlns:xlink="http://www.w3.org/1999/xlink" version="1.1" id="Capa_1" x="0px" y="0px" viewBox="0 0 512 512" style="enable-background:new 0 0 512 512;" xml:space="preserve" width="512px" height="512px">
<g>
	<g>
		<path d="M468.458,475.756L265.792,6.437c-1.686-3.902-5.732-6.434-9.78-6.437c-4.056-0.004-8.114,2.527-9.804,6.437    L43.542,475.756c-2.25,5.198-0.042,11.239,5.021,13.77l42.667,21.333c2.542,1.281,5.458,1.5,8.146,0.573L256,459.225    l156.625,52.207c1.104,0.375,2.229,0.552,3.375,0.552c1.646,0,3.271-0.375,4.771-1.125l42.667-21.333    C468.5,486.995,470.708,480.954,468.458,475.756z M415.188,489.813l-155.813-51.927c-1.104-0.365-2.229-0.552-3.375-0.552    s-2.271,0.188-3.375,0.552L96.813,489.813l-29.688-14.844L256,37.573l188.875,437.396L415.188,489.813z" fill="#c20404"/>
	</g>
</g>
<g>
</g>
<g>
</g>
<g>
</g>
<g>
</g>
<g>
</g>
<g>
</g>
<g>
</g>
<g>
</g>
<g>
</g>
<g>
</g>
<g>
</g>
<g>
</g>
<g>
</g>
<g>
</g>
<g>
</g>
</svg>
